<?xml version="1.0" encoding="UTF-8" standalone="no"?>
<!-- Created with Inkscape (http://www.inkscape.org/) -->

<svg
   width="2160"
   height="2160"
   viewBox="0 0 571.49999 571.50002"
   version="1.1"
   id="svg5"
   inkscape:version="1.1.2 (08b2f3d93c, 2022-04-05)"
   sodipodi:docname="airdrop-marketing-toolsvg.svg"
   xmlns:inkscape="http://www.inkscape.org/namespaces/inkscape"
   xmlns:sodipodi="http://sodipodi.sourceforge.net/DTD/sodipodi-0.dtd"
   xmlns="http://www.w3.org/2000/svg"
   xmlns:svg="http://www.w3.org/2000/svg">
  <sodipodi:namedview
     id="namedview7"
     pagecolor="#ffffff"
     bordercolor="#999999"
     borderopacity="1"
     inkscape:pageshadow="0"
     inkscape:pageopacity="0"
     inkscape:pagecheckerboard="0"
     inkscape:document-units="px"
     showgrid="false"
     units="px"
     inkscape:zoom="0.22916667"
     inkscape:cx="1616.7273"
     inkscape:cy="848.72727"
     inkscape:window-width="1366"
     inkscape:window-height="704"
     inkscape:window-x="0"
     inkscape:window-y="0"
     inkscape:window-maximized="1"
     inkscape:current-layer="layer1" />
  <defs
     id="defs2">
    <rect
       x="1386.9375"
       y="455.80398"
       width="31.580966"
       height="71.066761"
       id="rect117827" />
  </defs>
  <g
     inkscape:label="Layer 1"
     inkscape:groupmode="layer"
     id="layer1">
    <text
       xml:space="preserve"
       transform="scale(0.26458334)"
       id="text117825"
       style="font-style:normal;font-weight:normal;font-size:40px;line-height:1.25;font-family:sans-serif;white-space:pre;shape-inside:url(#rect117827);fill:#000000;fill-opacity:1;stroke:none" />
    <g
       id="g200329"
       inkscape:export-filename="/home/human/Pictures/airdrop-doman.png"
       inkscape:export-xdpi="96"
       inkscape:export-ydpi="96"
       transform="translate(-90.236268,-18.145475)">
      <rect
         style="fill:#000000;stroke:none;stroke-width:2.64583;stroke-linecap:round;stroke-linejoin:round"
         id="rect146047"
         width="285.75"
         height="285.75"
         x="390.1156"
         y="93.283669" />
      <g
         id="g146085"
         transform="matrix(1.0831251,0,0,1.0831251,277.19295,-27.834519)">
        <path
           style="fill:#1a1a1a;stroke:#ffffff;stroke-width:1.32292;stroke-linecap:round;stroke-linejoin:round;stroke-miterlimit:4;stroke-dasharray:none;stroke-opacity:1"
           d="m 203.04028,191.20957 c -11.5338,-0.56147 -19.93795,4.89876 -26.94546,13.04619 -11.6948,-2.6571 -17.56719,3.22204 -23.83742,8.5179 -11.24892,-2.22119 -20.7791,0.52614 -28.53656,8.39805 1.23562,-21.03759 3.70422,-41.80627 25.73167,-58.30885 40.57144,4.07009 42.52,17.28839 53.58777,28.34671 z"
           id="path146055"
           sodipodi:nodetypes="cccccc" />
        <path
           style="fill:none;stroke:#ffffff;stroke-width:1.32292;stroke-linecap:round;stroke-linejoin:miter;stroke-miterlimit:4;stroke-dasharray:none;stroke-opacity:1"
           d="M 176.09482,204.25576 182.50786,255.27"
           id="path146057" />
        <path
           style="fill:#ffffff;stroke:#ffffff;stroke-width:1.32292;stroke-linecap:round;stroke-linejoin:miter;stroke-miterlimit:4;stroke-dasharray:none;stroke-opacity:1"
           d="M 141.28759,203.65658 182.50786,255.27"
           id="path146059" />
        <path
           style="fill:#000000;stroke:#ffffff;stroke-width:1.32292;stroke-linecap:round;stroke-linejoin:round;stroke-miterlimit:4;stroke-dasharray:none;stroke-opacity:1"
           d="m 211.69748,269.78794 -23.93075,1.15486 -18.89643,14.84245 23.6283,-1.50555 z"
           id="path146061" />
        <path
           style="fill:none;stroke:#ffffff;stroke-width:1.32292;stroke-linecap:round;stroke-linejoin:miter;stroke-miterlimit:4;stroke-dasharray:none;stroke-opacity:1"
           d="M 203.04028,191.20957 182.50786,255.27"
           id="path146063" />
        <path
           style="fill:none;stroke:#ffffff;stroke-width:1.32292;stroke-linecap:round;stroke-linejoin:miter;stroke-miterlimit:4;stroke-dasharray:none;stroke-opacity:1"
           d="m 179.0237,189.5111 3.48416,65.7589"
           id="path146065" />
        <path
           style="fill:none;stroke:#ffffff;stroke-width:1.32292;stroke-linecap:round;stroke-linejoin:miter;stroke-miterlimit:4;stroke-dasharray:none;stroke-opacity:1"
           d="M 123.72084,221.17171 182.50786,255.27"
           id="path146067" />
        <path
           style="fill:#ffffff;stroke:#ffffff;stroke-width:1.32292;stroke-linecap:round;stroke-linejoin:miter;stroke-miterlimit:4;stroke-dasharray:none;stroke-opacity:1"
           d="M 152.2574,212.77366 182.50786,255.27"
           id="path146069" />
        <path
           style="fill:#000000;stroke:#ffffff;stroke-width:1.32292;stroke-linecap:round;stroke-linejoin:round;stroke-miterlimit:4;stroke-dasharray:none;stroke-opacity:1"
           d="m 211.69748,269.78794 -9.4566,-25.84909 -24.03814,1.43404 9.56399,25.56991 z"
           id="path146071" />
        <path
           style="fill:#000000;stroke:#ffffff;stroke-width:1.32292;stroke-linecap:round;stroke-linejoin:round;stroke-miterlimit:4;stroke-dasharray:none;stroke-opacity:1"
           d="m 178.20274,245.37289 -19.23329,15.02388 9.90085,25.38848 18.89643,-14.84245 z"
           id="path146073" />
        <path
           style="fill:#333333;stroke:#ffffff;stroke-width:1.32292;stroke-linecap:round;stroke-linejoin:round;stroke-miterlimit:4;stroke-dasharray:none;stroke-opacity:1"
           d="m 179.0237,189.5111 c -5.41344,-16.80493 -13.34371,-29.38853 -29.57119,-26.64824 -18.23096,6.22124 -10.73973,28.76112 -8.16492,40.79372 7.88078,-14.27452 18.77432,-22.41867 37.73611,-14.14548 z"
           id="path146075"
           sodipodi:nodetypes="cccc" />
        <path
           style="fill:#333333;stroke:#ffffff;stroke-width:1.32292;stroke-linecap:round;stroke-linejoin:round;stroke-miterlimit:4;stroke-dasharray:none;stroke-opacity:1"
           d="m 203.04028,191.20957 c -10.37078,-20.18996 -24.07854,-31.02164 -42.88552,-27.55294 11.27727,4.3654 15.43122,14.80459 18.86894,25.85447 7.33286,-1.87481 13.09104,-9.46372 24.01658,1.69847 z"
           id="path146077"
           sodipodi:nodetypes="cccc" />
        <path
           style="fill:#333333;stroke:#ffffff;stroke-width:1.32292;stroke-linecap:round;stroke-linejoin:round;stroke-miterlimit:4;stroke-dasharray:none;stroke-opacity:1"
           d="m 139.15486,171.81857 c -2.82531,11.36057 -1.46864,21.83667 2.13273,31.83801 -8.38939,1.18745 -16.32623,3.20562 -17.56675,17.51513 -4.34219,-22.44667 -2.05963,-40.70655 15.43402,-49.35314 z"
           id="path146079"
           sodipodi:nodetypes="cccc" />
        <path
           d="m 200.16261,251.93516 -1.68848,-1.68836 2.18551,-0.61058 c 0.0584,-0.0163 0.1373,0.003 0.18389,0.0469 0.0509,0.0475 0.31009,0.29048 0.62161,0.58228 0.37281,0.34933 0.81861,0.76689 1.07341,1.00515 z m -0.64745,13.26655 c -0.0264,0.10968 -0.0951,0.12888 -0.11732,0.1351 l -0.89284,0.24974 c -0.47264,0.13185 -1.01785,0.28399 -1.34233,0.37475 l 1.72866,-7.20508 c 0.0288,-0.11979 -0.008,-0.24554 -0.0958,-0.33122 -0.0886,-0.0856 -0.21518,-0.11778 -0.33324,-0.0847 l -3.2e-4,9e-5 -5.91577,1.66298 -1.7466,-1.70836 8.61967,-2.41097 c 6.7e-4,-1.9e-4 0.002,-8.8e-4 0.003,-0.001 8.1e-4,-2.2e-4 0.002,-2e-4 0.003,-4.7e-4 0.005,-10e-4 0.009,-0.005 0.0136,-0.006 0.0188,-0.007 0.0379,-0.0137 0.055,-0.0237 0.0134,-0.007 0.026,-0.0156 0.0382,-0.0248 0.007,-0.005 0.0128,-0.01 0.0192,-0.0147 0.0565,-0.0467 0.10036,-0.11 0.11805,-0.18726 l 0.68613,-3.02423 2.34562,-0.65608 z m -3.02345,0.59025 c -0.11024,-0.10309 -0.25346,-0.23721 -0.40938,-0.38307 -0.52474,-0.49213 -1.19688,-1.12204 -1.27208,-1.19069 -0.0252,-0.0233 -0.0526,-0.0896 -0.0344,-0.1652 0.0414,-0.17278 0.82114,-3.44303 1.01104,-4.24007 l 2.29385,-0.64472 z m -5.00443,-2.80665 -1.70739,-1.70749 0.54683,-2.47651 1.71154,1.67386 c -0.16962,0.77498 -0.43457,1.98384 -0.55098,2.51014 z m -1.4426,0.74371 c -0.58061,0.1624 -1.15807,0.32357 -1.2429,0.3473 l -3.2e-4,9e-5 c -0.0568,0.0159 -0.13661,-0.005 -0.1822,-0.0471 l -0.54243,-0.50811 c -0.38652,-0.36226 -0.87951,-0.82418 -1.15267,-1.07962 l 2.37595,-0.66457 1.68813,1.68842 c -0.2461,0.0688 -0.59455,0.16596 -0.94356,0.26358 z m -0.097,-15.21824 c 0.0263,-0.10996 0.0947,-0.12907 0.11691,-0.13529 l 2.24475,-0.62753 -1.73801,7.2077 c -10e-4,0.007 -0.002,0.0116 -0.003,0.0183 -0.002,0.0115 -0.004,0.0237 -0.005,0.0359 -3e-5,0.011 -8.7e-4,0.0229 -7.7e-4,0.0344 -3e-5,0.011 8.2e-4,0.0215 0.002,0.0319 0.002,0.0136 0.004,0.0258 0.008,0.0381 10e-4,0.006 9.3e-4,0.0108 0.003,0.017 0.001,0.004 0.003,0.008 0.005,0.0111 0.004,0.0116 0.009,0.0236 0.013,0.0354 0.005,0.01 0.009,0.0193 0.0142,0.0284 0.006,0.009 0.0125,0.0188 0.0183,0.0284 0.006,0.009 0.0134,0.0183 0.02,0.0268 0.008,0.009 0.0149,0.0161 0.023,0.0239 0.008,0.007 0.0157,0.0151 0.0247,0.0221 0.009,0.007 0.018,0.0131 0.0278,0.0194 0.01,0.006 0.0186,0.0119 0.0285,0.0172 0.01,0.006 0.0195,0.009 0.0297,0.013 0.0118,0.005 0.0229,0.009 0.0344,0.0124 0.005,0.002 0.008,0.004 0.0127,0.005 0.005,0.002 0.009,7.3e-4 0.0133,4.3e-4 0.0196,0.004 0.0397,0.006 0.0604,0.007 0.007,4e-5 0.0144,1.3e-4 0.0219,9e-5 0.0258,-9.8e-4 0.0514,-0.005 0.0775,-0.0123 3.3e-4,-9e-5 4.2e-4,2.2e-4 7.4e-4,1.3e-4 l 3.2e-4,-9e-5 3.3e-4,-9e-5 0.14732,-0.0416 c 6.6e-4,-1.8e-4 0.002,-2.2e-4 0.002,-2.2e-4 l 3.1e-4,-9e-5 5.76709,-1.62139 c 0.2268,0.2227 0.65161,0.64229 1.01342,0.99958 0.27787,0.2747 0.50745,0.50116 0.68802,0.67921 l -8.58523,2.40134 c -0.004,10e-4 -0.007,0.004 -0.0104,0.005 -0.11623,0.0346 -0.21151,0.1279 -0.2398,0.25551 l -0.67605,3.06153 -2.34404,0.65564 c 0.50955,-2.12239 3.14946,-13.11358 3.18363,-13.25504 z m 3.03036,-0.58416 0.30433,0.28476 c 0.535,0.50147 1.29049,1.20925 1.37012,1.28258 0.0253,0.0233 0.0525,0.0893 0.0341,0.16529 l -1.01103,4.24007 -2.29288,0.64445 z m 4.99584,2.79826 1.70829,1.70826 -0.56196,2.47586 c -0.20642,-0.20326 -0.46302,-0.4567 -0.70383,-0.69467 -0.47583,-0.47022 -0.82268,-0.81251 -1.01768,-1.00363 0.12105,-0.52341 0.4408,-1.9081 0.57518,-2.48582 z"
           id="path146081"
           style="fill:#ffffff;fill-rule:evenodd;stroke:none;stroke-width:0.401029" />
        <path
           d="m 177.39762,259.96405 -2.00957,-1.28963 2.00513,-1.06242 c 0.0535,-0.0284 0.13487,-0.0259 0.18965,0.007 0.0598,0.0355 0.36489,0.2177 0.73145,0.4364 0.4387,0.26183 0.96327,0.57476 1.263,0.75323 z m 2.19537,13.09965 c -0.002,0.11279 -0.0654,0.14618 -0.0858,0.15701 l -0.81909,0.43431 c -0.43366,0.22957 -0.93391,0.49443 -1.23159,0.65227 l 0.15308,-7.40796 c 0.003,-0.12318 -0.06,-0.23823 -0.16417,-0.3032 -0.10481,-0.0647 -0.23534,-0.0692 -0.34364,-0.0118 l -3e-4,1.6e-4 -5.42532,2.88578 -2.07061,-1.29678 7.90763,-4.19296 c 6.1e-4,-3.2e-4 0.002,-10e-4 0.002,-0.002 7.5e-4,-4e-4 0.002,-6.3e-4 0.003,-10e-4 0.004,-0.002 0.008,-0.006 0.012,-0.009 0.0168,-0.0112 0.0341,-0.0215 0.0486,-0.0349 0.0116,-0.01 0.0221,-0.0208 0.0321,-0.0324 0.006,-0.006 0.0104,-0.0123 0.0157,-0.0185 0.0452,-0.0577 0.0746,-0.12887 0.0754,-0.20812 l 0.0257,-3.10098 2.15186,-1.141 z m -2.82814,1.22117 c -0.12969,-0.0772 -0.29821,-0.17773 -0.48163,-0.287 -0.61758,-0.36896 -1.40855,-0.84112 -1.49665,-0.89216 -0.0296,-0.0174 -0.0705,-0.0764 -0.0688,-0.15408 0.004,-0.17763 0.0683,-3.53893 0.084,-4.35813 l 2.1037,-1.11887 z m -5.48769,-1.67538 -2.03213,-1.30429 0.006,-2.53616 2.02901,1.27055 c -5.3e-4,0.79332 -0.002,2.03088 -0.003,2.5699 z m -1.25092,1.03412 c -0.53264,0.28243 -1.06247,0.563 -1.1403,0.60426 l -2.9e-4,1.6e-4 c -0.0521,0.0276 -0.13447,0.0245 -0.18804,-0.007 l -0.63828,-0.38081 c -0.45485,-0.27154 -1.03497,-0.61776 -1.35631,-0.8091 l 2.17968,-1.15576 2.00924,1.28977 c -0.22577,0.11972 -0.54551,0.28888 -0.86568,0.45865 z m -3.33877,-14.84778 c 0.002,-0.11305 0.065,-0.14629 0.0854,-0.1571 l 2.0594,-1.09161 -0.16166,7.41252 c 1.7e-4,0.007 5.5e-4,0.0117 8.1e-4,0.0186 5.5e-4,0.0117 10e-4,0.024 0.003,0.0362 0.002,0.0108 0.004,0.0225 0.007,0.0337 0.002,0.0108 0.005,0.0208 0.008,0.0308 0.005,0.0129 0.009,0.0243 0.0155,0.0356 0.002,0.005 0.003,0.0103 0.006,0.0161 0.002,0.004 0.005,0.008 0.007,0.01 0.006,0.0105 0.0135,0.0212 0.0203,0.0318 0.007,0.008 0.0124,0.0171 0.0199,0.0248 0.008,0.008 0.0163,0.0157 0.024,0.0238 0.008,0.008 0.017,0.015 0.0253,0.0219 0.009,0.007 0.018,0.0125 0.0276,0.0184 0.01,0.005 0.0186,0.0114 0.0288,0.0163 0.0104,0.005 0.0204,0.009 0.0313,0.0131 0.0108,0.003 0.0207,0.008 0.0315,0.0107 0.0108,0.003 0.0209,0.004 0.0318,0.006 0.0126,0.002 0.0243,0.004 0.0363,0.005 0.005,7.7e-4 0.009,0.002 0.0135,0.002 0.005,7.8e-4 0.008,-10e-4 0.0131,-0.002 0.0199,-3.9e-4 0.0401,-0.002 0.0605,-0.006 0.007,-0.002 0.0141,-0.003 0.0214,-0.005 0.025,-0.006 0.0492,-0.0159 0.0731,-0.0286 3e-4,-1.6e-4 4.5e-4,1.3e-4 7.5e-4,-3e-5 l 2.9e-4,-1.5e-4 3e-4,-1.6e-4 0.13508,-0.072 c 6e-4,-3.2e-4 0.002,-6.4e-4 0.002,-6.4e-4 l 2.9e-4,-1.6e-4 5.28891,-2.81346 c 0.26906,0.16924 0.77355,0.48863 1.20321,0.76059 0.33003,0.20915 0.60262,0.38146 0.81699,0.51694 l -7.87604,4.1762 c -0.004,0.002 -0.006,0.006 -0.009,0.007 -0.10619,0.0586 -0.17939,0.17005 -0.17983,0.30075 l -0.008,3.13528 -2.15041,1.14024 c 0.0454,-2.18224 0.28175,-13.48354 0.28498,-13.62904 z m 2.83619,-1.2167 0.35803,0.21335 c 0.6296,0.37589 1.5186,0.90637 1.61204,0.96104 0.0297,0.0173 0.0703,0.0761 0.0685,0.15422 l -0.084,4.35813 -2.10281,1.1184 z m 5.4775,1.66902 2.03317,1.30485 -0.0213,2.53875 c -0.24499,-0.15459 -0.54972,-0.34751 -0.83572,-0.52867 -0.56513,-0.35798 -0.97697,-0.61847 -1.20823,-0.76363 0.007,-0.53719 0.0239,-1.95822 0.0321,-2.5513 z"
           id="path146083"
           style="fill:#ffffff;fill-rule:evenodd;stroke:none;stroke-width:0.401029" />
      </g>
      <text
         xml:space="preserve"
         style="font-style:normal;font-weight:normal;font-size:10.5833px;line-height:1.25;font-family:sans-serif;white-space:pre;inline-size:120.171;fill:#000000;fill-opacity:1;stroke:none;stroke-width:0.264583"
         x="344.05161"
         y="140.09012"
         id="text146095"
         transform="matrix(1.2143871,0,0,1.2143871,104.20379,-3.2976226)"><tspan
           x="344.05161"
           y="140.09012"
           id="tspan200744"><tspan
             style="font-family:'Open Sans';-inkscape-font-specification:'Open Sans';text-align:end;text-anchor:end;fill:#ffffff"
             id="tspan200738">Dear, </tspan><tspan
             style="font-weight:bold"
             id="tspan200740">Domain Owners</tspan><tspan
             style="font-family:'Open Sans';-inkscape-font-specification:'Open Sans';text-align:end;text-anchor:end;fill:#ffffff"
             id="tspan200742">,
</tspan></tspan><tspan
           x="344.05161"
           y="153.58491"
           id="tspan200750"><tspan
             style="font-family:'Open Sans';-inkscape-font-specification:'Open Sans';text-align:end;text-anchor:end;fill:#ffffff"
             id="tspan200746">Claim your </tspan><tspan
             style="font-weight:bold"
             id="tspan200748">Reserved </tspan></tspan><tspan
           x="344.05161"
           y="167.0797"
           id="tspan200760"><tspan
             style="font-weight:bold"
             id="tspan200752">Domains</tspan><tspan
             style="font-family:'Open Sans';-inkscape-font-specification:'Open Sans';text-align:end;text-anchor:end;fill:#ffffff"
             id="tspan200754"> </tspan><tspan
             style="font-weight:bold"
             id="tspan200756">now</tspan><tspan
             style="font-family:'Open Sans';-inkscape-font-specification:'Open Sans';text-align:end;text-anchor:end;fill:#ffffff"
             id="tspan200758">!
</tspan></tspan><tspan
           x="344.05161"
           y="180.30882"
           id="tspan200764"><tspan
             style="font-weight:bold;font-size:6.39097px"
             id="tspan200762">(Alexa Top 100,000)</tspan></tspan></text>
      <g
         id="g200017"
         transform="translate(16.12704,0.52916663)">
        <g
           id="g199997">
          <g
             id="g146053"
             transform="matrix(0.81545453,0,0,0.81545453,439.77023,81.400769)">
            <circle
               style="fill:#000000;stroke:#ffffff;stroke-width:2.64583;stroke-linecap:round;stroke-linejoin:round;stroke-miterlimit:4;stroke-dasharray:none"
               id="circle146049"
               cx="230.15451"
               cy="316.20038"
               r="20.851723" />
            <path
               style="fill:#000000;stroke:#ffffff;stroke-width:2.64583;stroke-linecap:round;stroke-linejoin:round;stroke-miterlimit:4;stroke-dasharray:none"
               id="path146051"
               sodipodi:type="arc"
               sodipodi:cx="230.51926"
               sodipodi:cy="354.34366"
               sodipodi:rx="34.516289"
               sodipodi:ry="19.917036"
               sodipodi:start="3.1415927"
               sodipodi:end="0"
               sodipodi:arc-type="slice"
               d="m 196.00297,354.34366 a 34.516289,19.917036 0 0 1 34.51629,-19.91704 34.516289,19.917036 0 0 1 34.51629,19.91704 h -34.51629 z" />
          </g>
          <g
             id="g146101"
             transform="matrix(0.81545453,0,0,0.81545453,367.70781,77.517165)">
            <circle
               style="fill:#000000;stroke:#ffffff;stroke-width:2.64583;stroke-linecap:round;stroke-linejoin:round;stroke-miterlimit:4;stroke-dasharray:none"
               id="circle146097"
               cx="230.15451"
               cy="316.20038"
               r="20.851723" />
            <path
               style="fill:#000000;stroke:#ffffff;stroke-width:2.64583;stroke-linecap:round;stroke-linejoin:round;stroke-miterlimit:4;stroke-dasharray:none"
               id="path146099"
               sodipodi:type="arc"
               sodipodi:cx="230.51926"
               sodipodi:cy="354.34366"
               sodipodi:rx="34.516289"
               sodipodi:ry="19.917036"
               sodipodi:start="3.1415927"
               sodipodi:end="0"
               sodipodi:arc-type="slice"
               d="m 196.00297,354.34366 a 34.516289,19.917036 0 0 1 34.51629,-19.91704 34.516289,19.917036 0 0 1 34.51629,19.91704 h -34.51629 z" />
          </g>
          <g
             id="g146107"
             transform="matrix(0.81545453,0,0,0.81545453,404.38629,77.085652)">
            <circle
               style="fill:#000000;stroke:#ffffff;stroke-width:2.64583;stroke-linecap:round;stroke-linejoin:round;stroke-miterlimit:4;stroke-dasharray:none"
               id="circle146103"
               cx="230.15451"
               cy="316.20038"
               r="20.851723" />
            <path
               style="fill:#000000;stroke:#ffffff;stroke-width:2.64583;stroke-linecap:round;stroke-linejoin:round;stroke-miterlimit:4;stroke-dasharray:none"
               id="path146105"
               sodipodi:type="arc"
               sodipodi:cx="230.51926"
               sodipodi:cy="354.34366"
               sodipodi:rx="34.516289"
               sodipodi:ry="19.917036"
               sodipodi:start="3.1415927"
               sodipodi:end="0"
               sodipodi:arc-type="slice"
               d="m 196.00297,354.34366 a 34.516289,19.917036 0 0 1 34.51629,-19.91704 34.516289,19.917036 0 0 1 34.51629,19.91704 h -34.51629 z" />
          </g>
          <circle
             style="fill:#000000;stroke:#ffffff;stroke-width:2.15755;stroke-linecap:round;stroke-linejoin:round;stroke-miterlimit:4;stroke-dasharray:none"
             id="circle146109"
             cx="599.83405"
             cy="345.72052"
             r="17.003632" />
          <path
             style="fill:#000000;stroke:#ffffff;stroke-width:2.64583;stroke-linecap:round;stroke-linejoin:round;stroke-miterlimit:4;stroke-dasharray:none"
             id="path146111"
             sodipodi:type="arc"
             sodipodi:cx="600.13147"
             sodipodi:cy="376.82465"
             sodipodi:rx="28.146463"
             sodipodi:ry="16.241436"
             sodipodi:start="3.1415927"
             sodipodi:end="0"
             sodipodi:arc-type="slice"
             d="m 571.98501,376.82465 a 28.146463,16.241436 0 0 1 28.14646,-16.24144 28.146463,16.241436 0 0 1 28.14646,16.24144 h -28.14646 z" />
          <circle
             style="fill:#000000;stroke:#ffffff;stroke-width:2.15755;stroke-linecap:round;stroke-linejoin:round;stroke-miterlimit:4;stroke-dasharray:none"
             id="circle146113"
             cx="569.62823"
             cy="345.72052"
             r="17.003632" />
          <path
             style="fill:#000000;stroke:#ffffff;stroke-width:2.64583;stroke-linecap:round;stroke-linejoin:round;stroke-miterlimit:4;stroke-dasharray:none"
             id="path146115"
             sodipodi:type="arc"
             sodipodi:cx="569.92572"
             sodipodi:cy="376.82465"
             sodipodi:rx="28.146463"
             sodipodi:ry="16.241436"
             sodipodi:start="3.1415927"
             sodipodi:end="0"
             sodipodi:arc-type="slice"
             d="m 541.77926,376.82465 a 28.146463,16.241436 0 0 1 28.14646,-16.24144 28.146463,16.241436 0 0 1 28.14646,16.24144 h -28.14646 z" />
          <circle
             style="fill:#000000;stroke:#ffffff;stroke-width:2.15755;stroke-linecap:round;stroke-linejoin:round;stroke-miterlimit:4;stroke-dasharray:none"
             id="circle146117"
             cx="630.03973"
             cy="345.72052"
             r="17.003632" />
          <path
             style="fill:#000000;stroke:#ffffff;stroke-width:2.64583;stroke-linecap:round;stroke-linejoin:round;stroke-miterlimit:4;stroke-dasharray:none"
             id="path146119"
             sodipodi:type="arc"
             sodipodi:cx="630.33722"
             sodipodi:cy="376.82465"
             sodipodi:rx="28.146463"
             sodipodi:ry="16.241436"
             sodipodi:start="3.1415927"
             sodipodi:end="0"
             sodipodi:arc-type="slice"
             d="m 602.19076,376.82465 a 28.146463,16.241436 0 0 1 28.14646,-16.24144 28.146463,16.241436 0 0 1 28.14646,16.24144 h -28.14646 z" />
          <circle
             style="fill:#000000;stroke:#ffffff;stroke-width:2.15755;stroke-linecap:round;stroke-linejoin:round;stroke-miterlimit:4;stroke-dasharray:none"
             id="circle146121"
             cx="542.44305"
             cy="345.72052"
             r="17.003632" />
        </g>
        <path
           style="fill:#000000;stroke:#ffffff;stroke-width:2.64583;stroke-linecap:round;stroke-linejoin:round;stroke-miterlimit:4;stroke-dasharray:none"
           id="path146123"
           sodipodi:type="arc"
           sodipodi:cx="542.74054"
           sodipodi:cy="376.82465"
           sodipodi:rx="28.146463"
           sodipodi:ry="16.241436"
           sodipodi:start="3.1415927"
           sodipodi:end="0"
           sodipodi:arc-type="slice"
           d="m 514.59408,376.82465 a 28.146463,16.241436 0 0 1 28.14646,-16.24144 28.146463,16.241436 0 0 1 28.14646,16.24144 h -28.14646 z" />
      </g>
      <text
         xml:space="preserve"
         style="font-style:normal;font-weight:normal;font-size:10.5833px;line-height:1.25;font-family:sans-serif;white-space:pre;inline-size:172.722;fill:#000000;fill-opacity:1;stroke:none;stroke-width:0.264583"
         x="344.05161"
         y="140.09012"
         id="text146129"
         transform="matrix(0.78260305,0,0,0.78260305,124.37693,265.0263)"><tspan
           x="344.05161"
           y="140.09012"
           id="tspan200768"><tspan
             style="font-weight:bold;font-family:'Open Sans';-inkscape-font-specification:'Open Sans';fill:#ffffff"
             id="tspan200766">hsd-dev.org/guides/claims.html</tspan></tspan></text>
      <text
         xml:space="preserve"
         style="font-style:normal;font-weight:normal;font-size:8.39311px;line-height:1.25;font-family:sans-serif;text-align:start;text-anchor:start;white-space:pre;inline-size:233.248;fill:#000000;fill-opacity:1;stroke:none;stroke-width:0.264583"
         x="344.05161"
         y="140.09012"
         id="text146133"
         transform="matrix(1.1768909,0,0,1.1768909,2.440177,-52.233342)"><tspan
           x="344.05161"
           y="140.09012"
           id="tspan200772"><tspan
             style="font-weight:bold;font-family:'Open Sans';-inkscape-font-specification:'Open Sans';fill:#ffffff"
             id="tspan200770">HANDSHAKE NETWORK'S DECENTRALIZED AIRDROP</tspan></tspan></text>
      <path
         style="fill:none;stroke:#ffffff;stroke-width:1.32292;stroke-linecap:round;stroke-linejoin:round;stroke-miterlimit:4;stroke-dasharray:5.29168, 10.5834;stroke-dashoffset:0;stroke-opacity:1"
         d="m 518.92564,237.02818 c 22.69649,-1.91673 42.31695,-11.22573 57.27291,-31.74436"
         id="path146135"
         sodipodi:nodetypes="cc" />
      <path
         style="fill:#ffffff;stroke:#ffffff;stroke-width:0.796713;stroke-linecap:round;stroke-linejoin:round;stroke-miterlimit:4;stroke-dasharray:none;stroke-opacity:1"
         d="m 513.18164,238.8401 5.30672,-5.53478 0.94779,8.57429 z"
         id="path146137" />
    </g>
    <g
       id="g200279"
       inkscape:export-filename="/home/human/Pictures/airdrop-hns.png"
       inkscape:export-xdpi="96"
       inkscape:export-ydpi="96"
       transform="translate(-60.594392,-18.658903)">
      <rect
         style="fill:#000000;stroke:none;stroke-width:2.64583;stroke-linecap:round;stroke-linejoin:round"
         id="rect1181"
         width="285.75"
         height="285.75"
         x="74.723717"
         y="93.797096" />
      <g
         id="g3864"
         transform="matrix(1.0831251,0,0,1.0831251,-38.198922,-27.321088)">
        <path
           style="fill:#1a1a1a;stroke:#ffffff;stroke-width:1.32292;stroke-linecap:round;stroke-linejoin:round;stroke-miterlimit:4;stroke-dasharray:none;stroke-opacity:1"
           d="m 203.04028,191.20957 c -11.5338,-0.56147 -19.93795,4.89876 -26.94546,13.04619 -11.6948,-2.6571 -17.56719,3.22204 -23.83742,8.5179 -11.24892,-2.22119 -20.7791,0.52614 -28.53656,8.39805 1.23562,-21.03759 3.70422,-41.80627 25.73167,-58.30885 40.57144,4.07009 42.52,17.28839 53.58777,28.34671 z"
           id="path2949"
           sodipodi:nodetypes="cccccc" />
        <path
           style="fill:none;stroke:#ffffff;stroke-width:1.32292;stroke-linecap:round;stroke-linejoin:miter;stroke-miterlimit:4;stroke-dasharray:none;stroke-opacity:1"
           d="M 176.09482,204.25576 182.50786,255.27"
           id="path2965" />
        <path
           style="fill:#ffffff;stroke:#ffffff;stroke-width:1.32292;stroke-linecap:round;stroke-linejoin:miter;stroke-miterlimit:4;stroke-dasharray:none;stroke-opacity:1"
           d="M 141.28759,203.65658 182.50786,255.27"
           id="path2961" />
        <path
           style="fill:#000000;stroke:#ffffff;stroke-width:1.32292;stroke-linecap:round;stroke-linejoin:round;stroke-miterlimit:4;stroke-dasharray:none;stroke-opacity:1"
           d="m 211.69748,269.78794 -23.93075,1.15486 -18.89643,14.84245 23.6283,-1.50555 z"
           id="path2943" />
        <path
           style="fill:none;stroke:#ffffff;stroke-width:1.32292;stroke-linecap:round;stroke-linejoin:miter;stroke-miterlimit:4;stroke-dasharray:none;stroke-opacity:1"
           d="M 203.04028,191.20957 182.50786,255.27"
           id="path2959" />
        <path
           style="fill:none;stroke:#ffffff;stroke-width:1.32292;stroke-linecap:round;stroke-linejoin:miter;stroke-miterlimit:4;stroke-dasharray:none;stroke-opacity:1"
           d="m 179.0237,189.5111 3.48416,65.7589"
           id="path2957" />
        <path
           style="fill:none;stroke:#ffffff;stroke-width:1.32292;stroke-linecap:round;stroke-linejoin:miter;stroke-miterlimit:4;stroke-dasharray:none;stroke-opacity:1"
           d="M 123.72084,221.17171 182.50786,255.27"
           id="path2963" />
        <path
           style="fill:#ffffff;stroke:#ffffff;stroke-width:1.32292;stroke-linecap:round;stroke-linejoin:miter;stroke-miterlimit:4;stroke-dasharray:none;stroke-opacity:1"
           d="M 152.2574,212.77366 182.50786,255.27"
           id="path2967" />
        <path
           style="fill:#000000;stroke:#ffffff;stroke-width:1.32292;stroke-linecap:round;stroke-linejoin:round;stroke-miterlimit:4;stroke-dasharray:none;stroke-opacity:1"
           d="m 211.69748,269.78794 -9.4566,-25.84909 -24.03814,1.43404 9.56399,25.56991 z"
           id="path2945" />
        <path
           style="fill:#000000;stroke:#ffffff;stroke-width:1.32292;stroke-linecap:round;stroke-linejoin:round;stroke-miterlimit:4;stroke-dasharray:none;stroke-opacity:1"
           d="m 178.20274,245.37289 -19.23329,15.02388 9.90085,25.38848 18.89643,-14.84245 z"
           id="path2947" />
        <path
           style="fill:#333333;stroke:#ffffff;stroke-width:1.32292;stroke-linecap:round;stroke-linejoin:round;stroke-miterlimit:4;stroke-dasharray:none;stroke-opacity:1"
           d="m 179.0237,189.5111 c -5.41344,-16.80493 -13.34371,-29.38853 -29.57119,-26.64824 -18.23096,6.22124 -10.73973,28.76112 -8.16492,40.79372 7.88078,-14.27452 18.77432,-22.41867 37.73611,-14.14548 z"
           id="path2951"
           sodipodi:nodetypes="cccc" />
        <path
           style="fill:#333333;stroke:#ffffff;stroke-width:1.32292;stroke-linecap:round;stroke-linejoin:round;stroke-miterlimit:4;stroke-dasharray:none;stroke-opacity:1"
           d="m 203.04028,191.20957 c -10.37078,-20.18996 -24.07854,-31.02164 -42.88552,-27.55294 11.27727,4.3654 15.43122,14.80459 18.86894,25.85447 7.33286,-1.87481 13.09104,-9.46372 24.01658,1.69847 z"
           id="path2953"
           sodipodi:nodetypes="cccc" />
        <path
           style="fill:#333333;stroke:#ffffff;stroke-width:1.32292;stroke-linecap:round;stroke-linejoin:round;stroke-miterlimit:4;stroke-dasharray:none;stroke-opacity:1"
           d="m 139.15486,171.81857 c -2.82531,11.36057 -1.46864,21.83667 2.13273,31.83801 -8.38939,1.18745 -16.32623,3.20562 -17.56675,17.51513 -4.34219,-22.44667 -2.05963,-40.70655 15.43402,-49.35314 z"
           id="path2955"
           sodipodi:nodetypes="cccc" />
        <path
           d="m 200.16261,251.93516 -1.68848,-1.68836 2.18551,-0.61058 c 0.0584,-0.0163 0.1373,0.003 0.18389,0.0469 0.0509,0.0475 0.31009,0.29048 0.62161,0.58228 0.37281,0.34933 0.81861,0.76689 1.07341,1.00515 z m -0.64745,13.26655 c -0.0264,0.10968 -0.0951,0.12888 -0.11732,0.1351 l -0.89284,0.24974 c -0.47264,0.13185 -1.01785,0.28399 -1.34233,0.37475 l 1.72866,-7.20508 c 0.0288,-0.11979 -0.008,-0.24554 -0.0958,-0.33122 -0.0886,-0.0856 -0.21518,-0.11778 -0.33324,-0.0847 l -3.2e-4,9e-5 -5.91577,1.66298 -1.7466,-1.70836 8.61967,-2.41097 c 6.7e-4,-1.9e-4 0.002,-8.8e-4 0.003,-0.001 8.1e-4,-2.2e-4 0.002,-2e-4 0.003,-4.7e-4 0.005,-10e-4 0.009,-0.005 0.0136,-0.006 0.0188,-0.007 0.0379,-0.0137 0.055,-0.0237 0.0134,-0.007 0.026,-0.0156 0.0382,-0.0248 0.007,-0.005 0.0128,-0.01 0.0192,-0.0147 0.0565,-0.0467 0.10036,-0.11 0.11805,-0.18726 l 0.68613,-3.02423 2.34562,-0.65608 z m -3.02345,0.59025 c -0.11024,-0.10309 -0.25346,-0.23721 -0.40938,-0.38307 -0.52474,-0.49213 -1.19688,-1.12204 -1.27208,-1.19069 -0.0252,-0.0233 -0.0526,-0.0896 -0.0344,-0.1652 0.0414,-0.17278 0.82114,-3.44303 1.01104,-4.24007 l 2.29385,-0.64472 z m -5.00443,-2.80665 -1.70739,-1.70749 0.54683,-2.47651 1.71154,1.67386 c -0.16962,0.77498 -0.43457,1.98384 -0.55098,2.51014 z m -1.4426,0.74371 c -0.58061,0.1624 -1.15807,0.32357 -1.2429,0.3473 l -3.2e-4,9e-5 c -0.0568,0.0159 -0.13661,-0.005 -0.1822,-0.0471 l -0.54243,-0.50811 c -0.38652,-0.36226 -0.87951,-0.82418 -1.15267,-1.07962 l 2.37595,-0.66457 1.68813,1.68842 c -0.2461,0.0688 -0.59455,0.16596 -0.94356,0.26358 z m -0.097,-15.21824 c 0.0263,-0.10996 0.0947,-0.12907 0.11691,-0.13529 l 2.24475,-0.62753 -1.73801,7.2077 c -10e-4,0.007 -0.002,0.0116 -0.003,0.0183 -0.002,0.0115 -0.004,0.0237 -0.005,0.0359 -3e-5,0.011 -8.7e-4,0.0229 -7.7e-4,0.0344 -3e-5,0.011 8.2e-4,0.0215 0.002,0.0319 0.002,0.0136 0.004,0.0258 0.008,0.0381 10e-4,0.006 9.3e-4,0.0108 0.003,0.017 0.001,0.004 0.003,0.008 0.005,0.0111 0.004,0.0116 0.009,0.0236 0.013,0.0354 0.005,0.01 0.009,0.0193 0.0142,0.0284 0.006,0.009 0.0125,0.0188 0.0183,0.0284 0.006,0.009 0.0134,0.0183 0.02,0.0268 0.008,0.009 0.0149,0.0161 0.023,0.0239 0.008,0.007 0.0157,0.0151 0.0247,0.0221 0.009,0.007 0.018,0.0131 0.0278,0.0194 0.01,0.006 0.0186,0.0119 0.0285,0.0172 0.01,0.006 0.0195,0.009 0.0297,0.013 0.0118,0.005 0.0229,0.009 0.0344,0.0124 0.005,0.002 0.008,0.004 0.0127,0.005 0.005,0.002 0.009,7.3e-4 0.0133,4.3e-4 0.0196,0.004 0.0397,0.006 0.0604,0.007 0.007,4e-5 0.0144,1.3e-4 0.0219,9e-5 0.0258,-9.8e-4 0.0514,-0.005 0.0775,-0.0123 3.3e-4,-9e-5 4.2e-4,2.2e-4 7.4e-4,1.3e-4 l 3.2e-4,-9e-5 3.3e-4,-9e-5 0.14732,-0.0416 c 6.6e-4,-1.8e-4 0.002,-2.2e-4 0.002,-2.2e-4 l 3.1e-4,-9e-5 5.76709,-1.62139 c 0.2268,0.2227 0.65161,0.64229 1.01342,0.99958 0.27787,0.2747 0.50745,0.50116 0.68802,0.67921 l -8.58523,2.40134 c -0.004,10e-4 -0.007,0.004 -0.0104,0.005 -0.11623,0.0346 -0.21151,0.1279 -0.2398,0.25551 l -0.67605,3.06153 -2.34404,0.65564 c 0.50955,-2.12239 3.14946,-13.11358 3.18363,-13.25504 z m 3.03036,-0.58416 0.30433,0.28476 c 0.535,0.50147 1.29049,1.20925 1.37012,1.28258 0.0253,0.0233 0.0525,0.0893 0.0341,0.16529 l -1.01103,4.24007 -2.29288,0.64445 z m 4.99584,2.79826 1.70829,1.70826 -0.56196,2.47586 c -0.20642,-0.20326 -0.46302,-0.4567 -0.70383,-0.69467 -0.47583,-0.47022 -0.82268,-0.81251 -1.01768,-1.00363 0.12105,-0.52341 0.4408,-1.9081 0.57518,-2.48582 z"
           id="Fill-1"
           style="fill:#ffffff;fill-rule:evenodd;stroke:none;stroke-width:0.401029" />
        <path
           d="m 177.39762,259.96405 -2.00957,-1.28963 2.00513,-1.06242 c 0.0535,-0.0284 0.13487,-0.0259 0.18965,0.007 0.0598,0.0355 0.36489,0.2177 0.73145,0.4364 0.4387,0.26183 0.96327,0.57476 1.263,0.75323 z m 2.19537,13.09965 c -0.002,0.11279 -0.0654,0.14618 -0.0858,0.15701 l -0.81909,0.43431 c -0.43366,0.22957 -0.93391,0.49443 -1.23159,0.65227 l 0.15308,-7.40796 c 0.003,-0.12318 -0.06,-0.23823 -0.16417,-0.3032 -0.10481,-0.0647 -0.23534,-0.0692 -0.34364,-0.0118 l -3e-4,1.6e-4 -5.42532,2.88578 -2.07061,-1.29678 7.90763,-4.19296 c 6.1e-4,-3.2e-4 0.002,-10e-4 0.002,-0.002 7.5e-4,-4e-4 0.002,-6.3e-4 0.003,-10e-4 0.004,-0.002 0.008,-0.006 0.012,-0.009 0.0168,-0.0112 0.0341,-0.0215 0.0486,-0.0349 0.0116,-0.01 0.0221,-0.0208 0.0321,-0.0324 0.006,-0.006 0.0104,-0.0123 0.0157,-0.0185 0.0452,-0.0577 0.0746,-0.12887 0.0754,-0.20812 l 0.0257,-3.10098 2.15186,-1.141 z m -2.82814,1.22117 c -0.12969,-0.0772 -0.29821,-0.17773 -0.48163,-0.287 -0.61758,-0.36896 -1.40855,-0.84112 -1.49665,-0.89216 -0.0296,-0.0174 -0.0705,-0.0764 -0.0688,-0.15408 0.004,-0.17763 0.0683,-3.53893 0.084,-4.35813 l 2.1037,-1.11887 z m -5.48769,-1.67538 -2.03213,-1.30429 0.006,-2.53616 2.02901,1.27055 c -5.3e-4,0.79332 -0.002,2.03088 -0.003,2.5699 z m -1.25092,1.03412 c -0.53264,0.28243 -1.06247,0.563 -1.1403,0.60426 l -2.9e-4,1.6e-4 c -0.0521,0.0276 -0.13447,0.0245 -0.18804,-0.007 l -0.63828,-0.38081 c -0.45485,-0.27154 -1.03497,-0.61776 -1.35631,-0.8091 l 2.17968,-1.15576 2.00924,1.28977 c -0.22577,0.11972 -0.54551,0.28888 -0.86568,0.45865 z m -3.33877,-14.84778 c 0.002,-0.11305 0.065,-0.14629 0.0854,-0.1571 l 2.0594,-1.09161 -0.16166,7.41252 c 1.7e-4,0.007 5.5e-4,0.0117 8.1e-4,0.0186 5.5e-4,0.0117 10e-4,0.024 0.003,0.0362 0.002,0.0108 0.004,0.0225 0.007,0.0337 0.002,0.0108 0.005,0.0208 0.008,0.0308 0.005,0.0129 0.009,0.0243 0.0155,0.0356 0.002,0.005 0.003,0.0103 0.006,0.0161 0.002,0.004 0.005,0.008 0.007,0.01 0.006,0.0105 0.0135,0.0212 0.0203,0.0318 0.007,0.008 0.0124,0.0171 0.0199,0.0248 0.008,0.008 0.0163,0.0157 0.024,0.0238 0.008,0.008 0.017,0.015 0.0253,0.0219 0.009,0.007 0.018,0.0125 0.0276,0.0184 0.01,0.005 0.0186,0.0114 0.0288,0.0163 0.0104,0.005 0.0204,0.009 0.0313,0.0131 0.0108,0.003 0.0207,0.008 0.0315,0.0107 0.0108,0.003 0.0209,0.004 0.0318,0.006 0.0126,0.002 0.0243,0.004 0.0363,0.005 0.005,7.7e-4 0.009,0.002 0.0135,0.002 0.005,7.8e-4 0.008,-10e-4 0.0131,-0.002 0.0199,-3.9e-4 0.0401,-0.002 0.0605,-0.006 0.007,-0.002 0.0141,-0.003 0.0214,-0.005 0.025,-0.006 0.0492,-0.0159 0.0731,-0.0286 3e-4,-1.6e-4 4.5e-4,1.3e-4 7.5e-4,-3e-5 l 2.9e-4,-1.5e-4 3e-4,-1.6e-4 0.13508,-0.072 c 6e-4,-3.2e-4 0.002,-6.4e-4 0.002,-6.4e-4 l 2.9e-4,-1.6e-4 5.28891,-2.81346 c 0.26906,0.16924 0.77355,0.48863 1.20321,0.76059 0.33003,0.20915 0.60262,0.38146 0.81699,0.51694 l -7.87604,4.1762 c -0.004,0.002 -0.006,0.006 -0.009,0.007 -0.10619,0.0586 -0.17939,0.17005 -0.17983,0.30075 l -0.008,3.13528 -2.15041,1.14024 c 0.0454,-2.18224 0.28175,-13.48354 0.28498,-13.62904 z m 2.83619,-1.2167 0.35803,0.21335 c 0.6296,0.37589 1.5186,0.90637 1.61204,0.96104 0.0297,0.0173 0.0703,0.0761 0.0685,0.15422 l -0.084,4.35813 -2.10281,1.1184 z m 5.4775,1.66902 2.03317,1.30485 -0.0213,2.53875 c -0.24499,-0.15459 -0.54972,-0.34751 -0.83572,-0.52867 -0.56513,-0.35798 -0.97697,-0.61847 -1.20823,-0.76363 0.007,-0.53719 0.0239,-1.95822 0.0321,-2.5513 z"
           id="path3703"
           style="fill:#ffffff;fill-rule:evenodd;stroke:none;stroke-width:0.401029" />
      </g>
      <text
         xml:space="preserve"
         style="font-style:normal;font-weight:normal;font-size:10.5833px;line-height:1.25;font-family:sans-serif;white-space:pre;inline-size:120.171;fill:#000000;fill-opacity:1;stroke:none;stroke-width:0.264583"
         x="344.05161"
         y="140.09012"
         id="text6384"
         transform="matrix(1.2143871,0,0,1.2143871,-221.77142,2.5074749)"><tspan
           x="344.05161"
           y="140.09012"
           id="tspan200780"><tspan
             style="font-family:'Open Sans';-inkscape-font-specification:'Open Sans';text-align:end;text-anchor:end;fill:#ffffff"
             id="tspan200774">Dear,  </tspan><tspan
             style="font-weight:bold;text-align:end;text-anchor:end"
             id="tspan200776">Developers</tspan><tspan
             style="font-family:'Open Sans';-inkscape-font-specification:'Open Sans';text-align:end;text-anchor:end;fill:#ffffff"
             id="tspan200778">,
</tspan></tspan><tspan
           x="344.05161"
           y="153.58491"
           id="tspan200788"><tspan
             style="font-family:'Open Sans';-inkscape-font-specification:'Open Sans';text-align:end;text-anchor:end;fill:#ffffff"
             id="tspan200782">Claim your </tspan><tspan
             style="font-weight:bold;text-align:end;text-anchor:end"
             id="tspan200784">free HNS</tspan><tspan
             style="font-family:'Open Sans';-inkscape-font-specification:'Open Sans';text-align:end;text-anchor:end;fill:#ffffff"
             id="tspan200786"> </tspan></tspan><tspan
           x="344.05161"
           y="167.0797"
           id="tspan200796"><tspan
             style="font-family:'Open Sans';-inkscape-font-specification:'Open Sans';text-align:end;text-anchor:end;fill:#ffffff"
             id="tspan200790">token </tspan><tspan
             style="font-weight:bold"
             id="tspan200792">now</tspan><tspan
             style="font-family:'Open Sans';-inkscape-font-specification:'Open Sans';text-align:end;text-anchor:end;fill:#ffffff"
             id="tspan200794">!</tspan></tspan></text>
      <text
         xml:space="preserve"
         style="font-style:normal;font-weight:normal;font-size:10.5833px;line-height:1.25;font-family:sans-serif;white-space:pre;inline-size:120.171;fill:#000000;fill-opacity:1;stroke:none;stroke-width:0.264583"
         x="344.05161"
         y="140.09012"
         id="text122765"
         transform="matrix(0.78260305,0,0,0.78260305,-195.83732,263.63908)"><tspan
           x="344.05161"
           y="140.09012"
           id="tspan200800"><tspan
             style="font-weight:bold;font-family:'Open Sans';-inkscape-font-specification:'Open Sans';text-align:end;text-anchor:end;fill:#ffffff"
             id="tspan200798">handshake.org/claim</tspan></tspan></text>
      <text
         xml:space="preserve"
         style="font-style:normal;font-weight:normal;font-size:8.39311px;line-height:1.25;font-family:sans-serif;text-align:start;text-anchor:start;white-space:pre;inline-size:233.248;fill:#000000;fill-opacity:1;stroke:none;stroke-width:0.264583"
         x="344.05161"
         y="140.09012"
         id="text123757"
         transform="matrix(1.1768909,0,0,1.1768909,-312.9517,-51.719911)"><tspan
           x="344.05161"
           y="140.09012"
           id="tspan200804"><tspan
             style="font-weight:bold;font-family:'Open Sans';-inkscape-font-specification:'Open Sans';fill:#ffffff"
             id="tspan200802">HANDSHAKE NETWORK'S DECENTRALIZED AIRDROP</tspan></tspan></text>
      <path
         style="fill:none;stroke:#ffffff;stroke-width:1.32292;stroke-linecap:round;stroke-linejoin:round;stroke-miterlimit:4;stroke-dasharray:5.29168, 10.5834;stroke-dashoffset:0;stroke-opacity:1"
         d="m 203.53376,237.54161 c 22.69649,-1.91673 42.31695,-11.22573 57.27291,-31.74436"
         id="path135781"
         sodipodi:nodetypes="cc" />
      <path
         style="fill:#ffffff;stroke:#ffffff;stroke-width:0.796713;stroke-linecap:round;stroke-linejoin:round;stroke-miterlimit:4;stroke-dasharray:none;stroke-opacity:1"
         d="m 197.78976,239.35353 5.30672,-5.53478 0.94779,8.57429 z"
         id="path136279" />
      <g
         id="g200229"
         transform="translate(-299.33288,1.0583333)">
        <g
           id="g200225">
          <g
             id="g200197"
             transform="matrix(0.81545453,0,0,0.81545453,439.77023,81.400769)">
            <circle
               style="fill:#000000;stroke:#ffffff;stroke-width:2.64583;stroke-linecap:round;stroke-linejoin:round;stroke-miterlimit:4;stroke-dasharray:none"
               id="circle200193"
               cx="230.15451"
               cy="316.20038"
               r="20.851723" />
            <path
               style="fill:#000000;stroke:#ffffff;stroke-width:2.64583;stroke-linecap:round;stroke-linejoin:round;stroke-miterlimit:4;stroke-dasharray:none"
               id="path200195"
               sodipodi:type="arc"
               sodipodi:cx="230.51926"
               sodipodi:cy="354.34366"
               sodipodi:rx="34.516289"
               sodipodi:ry="19.917036"
               sodipodi:start="3.1415927"
               sodipodi:end="0"
               sodipodi:arc-type="slice"
               d="m 196.00297,354.34366 a 34.516289,19.917036 0 0 1 34.51629,-19.91704 34.516289,19.917036 0 0 1 34.51629,19.91704 h -34.51629 z" />
          </g>
          <g
             id="g200203"
             transform="matrix(0.81545453,0,0,0.81545453,367.70781,77.517165)">
            <circle
               style="fill:#000000;stroke:#ffffff;stroke-width:2.64583;stroke-linecap:round;stroke-linejoin:round;stroke-miterlimit:4;stroke-dasharray:none"
               id="circle200199"
               cx="230.15451"
               cy="316.20038"
               r="20.851723" />
            <path
               style="fill:#000000;stroke:#ffffff;stroke-width:2.64583;stroke-linecap:round;stroke-linejoin:round;stroke-miterlimit:4;stroke-dasharray:none"
               id="path200201"
               sodipodi:type="arc"
               sodipodi:cx="230.51926"
               sodipodi:cy="354.34366"
               sodipodi:rx="34.516289"
               sodipodi:ry="19.917036"
               sodipodi:start="3.1415927"
               sodipodi:end="0"
               sodipodi:arc-type="slice"
               d="m 196.00297,354.34366 a 34.516289,19.917036 0 0 1 34.51629,-19.91704 34.516289,19.917036 0 0 1 34.51629,19.91704 h -34.51629 z" />
          </g>
          <g
             id="g200209"
             transform="matrix(0.81545453,0,0,0.81545453,404.38629,77.085652)">
            <circle
               style="fill:#000000;stroke:#ffffff;stroke-width:2.64583;stroke-linecap:round;stroke-linejoin:round;stroke-miterlimit:4;stroke-dasharray:none"
               id="circle200205"
               cx="230.15451"
               cy="316.20038"
               r="20.851723" />
            <path
               style="fill:#000000;stroke:#ffffff;stroke-width:2.64583;stroke-linecap:round;stroke-linejoin:round;stroke-miterlimit:4;stroke-dasharray:none"
               id="path200207"
               sodipodi:type="arc"
               sodipodi:cx="230.51926"
               sodipodi:cy="354.34366"
               sodipodi:rx="34.516289"
               sodipodi:ry="19.917036"
               sodipodi:start="3.1415927"
               sodipodi:end="0"
               sodipodi:arc-type="slice"
               d="m 196.00297,354.34366 a 34.516289,19.917036 0 0 1 34.51629,-19.91704 34.516289,19.917036 0 0 1 34.51629,19.91704 h -34.51629 z" />
          </g>
          <circle
             style="fill:#000000;stroke:#ffffff;stroke-width:2.15755;stroke-linecap:round;stroke-linejoin:round;stroke-miterlimit:4;stroke-dasharray:none"
             id="circle200211"
             cx="599.83405"
             cy="345.72052"
             r="17.003632" />
          <path
             style="fill:#000000;stroke:#ffffff;stroke-width:2.64583;stroke-linecap:round;stroke-linejoin:round;stroke-miterlimit:4;stroke-dasharray:none"
             id="path200213"
             sodipodi:type="arc"
             sodipodi:cx="600.13147"
             sodipodi:cy="376.82465"
             sodipodi:rx="28.146463"
             sodipodi:ry="16.241436"
             sodipodi:start="3.1415927"
             sodipodi:end="0"
             sodipodi:arc-type="slice"
             d="m 571.98501,376.82465 a 28.146463,16.241436 0 0 1 28.14646,-16.24144 28.146463,16.241436 0 0 1 28.14646,16.24144 h -28.14646 z" />
          <circle
             style="fill:#000000;stroke:#ffffff;stroke-width:2.15755;stroke-linecap:round;stroke-linejoin:round;stroke-miterlimit:4;stroke-dasharray:none"
             id="circle200215"
             cx="569.62823"
             cy="345.72052"
             r="17.003632" />
          <path
             style="fill:#000000;stroke:#ffffff;stroke-width:2.64583;stroke-linecap:round;stroke-linejoin:round;stroke-miterlimit:4;stroke-dasharray:none"
             id="path200217"
             sodipodi:type="arc"
             sodipodi:cx="569.92572"
             sodipodi:cy="376.82465"
             sodipodi:rx="28.146463"
             sodipodi:ry="16.241436"
             sodipodi:start="3.1415927"
             sodipodi:end="0"
             sodipodi:arc-type="slice"
             d="m 541.77926,376.82465 a 28.146463,16.241436 0 0 1 28.14646,-16.24144 28.146463,16.241436 0 0 1 28.14646,16.24144 h -28.14646 z" />
          <circle
             style="fill:#000000;stroke:#ffffff;stroke-width:2.15755;stroke-linecap:round;stroke-linejoin:round;stroke-miterlimit:4;stroke-dasharray:none"
             id="circle200219"
             cx="630.03973"
             cy="345.72052"
             r="17.003632" />
          <path
             style="fill:#000000;stroke:#ffffff;stroke-width:2.64583;stroke-linecap:round;stroke-linejoin:round;stroke-miterlimit:4;stroke-dasharray:none"
             id="path200221"
             sodipodi:type="arc"
             sodipodi:cx="630.33722"
             sodipodi:cy="376.82465"
             sodipodi:rx="28.146463"
             sodipodi:ry="16.241436"
             sodipodi:start="3.1415927"
             sodipodi:end="0"
             sodipodi:arc-type="slice"
             d="m 602.19076,376.82465 a 28.146463,16.241436 0 0 1 28.14646,-16.24144 28.146463,16.241436 0 0 1 28.14646,16.24144 h -28.14646 z" />
          <circle
             style="fill:#000000;stroke:#ffffff;stroke-width:2.15755;stroke-linecap:round;stroke-linejoin:round;stroke-miterlimit:4;stroke-dasharray:none"
             id="circle200223"
             cx="542.44305"
             cy="345.72052"
             r="17.003632" />
        </g>
        <path
           style="fill:#000000;stroke:#ffffff;stroke-width:2.64583;stroke-linecap:round;stroke-linejoin:round;stroke-miterlimit:4;stroke-dasharray:none"
           id="path200227"
           sodipodi:type="arc"
           sodipodi:cx="542.74054"
           sodipodi:cy="376.82465"
           sodipodi:rx="28.146463"
           sodipodi:ry="16.241436"
           sodipodi:start="3.1415927"
           sodipodi:end="0"
           sodipodi:arc-type="slice"
           d="m 514.59408,376.82465 a 28.146463,16.241436 0 0 1 28.14646,-16.24144 28.146463,16.241436 0 0 1 28.14646,16.24144 h -28.14646 z" />
      </g>
    </g>
  </g>
</svg>
